<svg preserveAspectRatio="none" width="100%" height="100%" overflow="visible" style="display: block;" viewBox="0 0 49.5058 49.0441" fill="none" xmlns="http://www.w3.org/2000/svg">
<g id="&#229;&#133;&#137;&#230;&#150;&#145;3">
<g id="Ellipse 1" filter="url(#filter0_f_58_815)">
<path d="M45.2068 25.3757C45.2068 36.1831 34.4757 44.9441 23.6684 44.9441C12.8611 44.9441 4.1 36.1831 4.1 25.3757C4.1 14.5684 12.8611 4.1 23.6684 4.1C34.4757 4.1 45.2068 14.5684 45.2068 25.3757Z" fill="url(#paint0_linear_58_815)"/>
<path d="M45.2068 25.3757C45.2068 36.1831 34.4757 44.9441 23.6684 44.9441C12.8611 44.9441 4.1 36.1831 4.1 25.3757C4.1 14.5684 12.8611 4.1 23.6684 4.1C34.4757 4.1 45.2068 14.5684 45.2068 25.3757Z" fill="var(--fill-1, black)" fill-opacity="0.2"/>
<path d="M45.2068 25.3757C45.2068 36.1831 34.4757 44.9441 23.6684 44.9441C12.8611 44.9441 4.1 36.1831 4.1 25.3757C4.1 14.5684 12.8611 4.1 23.6684 4.1C34.4757 4.1 45.2068 14.5684 45.2068 25.3757Z" fill="url(#paint1_linear_58_815)" fill-opacity="0.2"/>
</g>
<g id="Ellipse 4" filter="url(#filter1_f_58_815)">
<path d="M45.2068 25.3757C45.2068 36.1831 34.4757 44.9441 23.6684 44.9441C12.8611 44.9441 4.1 36.1831 4.1 25.3757C4.1 14.5684 12.8611 4.1 23.6684 4.1C34.4757 4.1 45.2068 14.5684 45.2068 25.3757Z" fill="url(#paint2_linear_58_815)"/>
</g>
<g id="Ellipse 2" filter="url(#filter2_f_58_815)">
<path d="M43.6275 19.3639C43.9735 19.2796 44.3121 19.5221 44.335 19.8774C44.5097 22.5863 44.7421 28.8184 43.9339 31.2536C43.8488 31.5099 43.5759 31.6343 43.3136 31.5704L24.2409 26.9278C23.982 26.8647 23.7997 26.6328 23.7997 26.3664L23.7997 24.6477C23.7997 24.3812 23.9819 24.1494 24.2408 24.0863L43.6275 19.3639Z" fill="url(#paint3_linear_58_815)" fill-opacity="0.7"/>
</g>
<g id="Ellipse 3" filter="url(#filter3_f_58_815)">
<path d="M6.96916 34.2616C6.70735 34.3926 6.39211 34.3064 6.28362 34.0345C5.14596 31.1831 4.23376 20.5635 5.40136 18.2387C5.50123 18.0399 5.73663 17.9897 5.94693 18.0624L23.6734 24.1906C23.9062 24.2711 24.0624 24.4903 24.0624 24.7366L24.0624 26.5342C24.0624 26.7834 23.9026 27.0045 23.666 27.0827L16.7905 29.3562C16.7641 29.3649 16.7383 29.3755 16.7134 29.388L6.96916 34.2616Z" fill="url(#paint4_linear_58_815)" fill-opacity="0.7"/>
</g>
<g id="Rectangle 2" filter="url(#filter4_f_58_815)">
<rect x="22.2238" y="24.1938" width="3.41462" height="2.88929" rx="1.44465" fill="var(--fill-0, white)"/>
</g>
</g>
<defs>
<filter id="filter0_f_58_815" x="0" y="2.11357e-07" width="49.3068" height="49.0441" filterUnits="userSpaceOnUse" color-interpolation-filters="sRGB">
<feFlood flood-opacity="0" result="BackgroundImageFix"/>
<feBlend mode="normal" in="SourceGraphic" in2="BackgroundImageFix" result="shape"/>
<feGaussianBlur stdDeviation="2.05" result="effect1_foregroundBlur_58_815"/>
</filter>
<filter id="filter1_f_58_815" x="1.78891" y="1.78891" width="45.729" height="45.4663" filterUnits="userSpaceOnUse" color-interpolation-filters="sRGB">
<feFlood flood-opacity="0" result="BackgroundImageFix"/>
<feBlend mode="normal" in="SourceGraphic" in2="BackgroundImageFix" result="shape"/>
<feGaussianBlur stdDeviation="1.15554" result="effect1_foregroundBlur_58_815"/>
</filter>
<filter id="filter2_f_58_815" x="18.7997" y="14.3471" width="30.7061" height="22.2399" filterUnits="userSpaceOnUse" color-interpolation-filters="sRGB">
<feFlood flood-opacity="0" result="BackgroundImageFix"/>
<feBlend mode="normal" in="SourceGraphic" in2="BackgroundImageFix" result="shape"/>
<feGaussianBlur stdDeviation="2.5" result="effect1_foregroundBlur_58_815"/>
</filter>
<filter id="filter3_f_58_815" x="1.25826" y="14.4308" width="26.4041" height="23.491" filterUnits="userSpaceOnUse" color-interpolation-filters="sRGB">
<feFlood flood-opacity="0" result="BackgroundImageFix"/>
<feBlend mode="normal" in="SourceGraphic" in2="BackgroundImageFix" result="shape"/>
<feGaussianBlur stdDeviation="1.8" result="effect1_foregroundBlur_58_815"/>
</filter>
<filter id="filter4_f_58_815" x="12.575" y="14.545" width="22.7122" height="22.1869" filterUnits="userSpaceOnUse" color-interpolation-filters="sRGB">
<feFlood flood-opacity="0" result="BackgroundImageFix"/>
<feBlend mode="normal" in="SourceGraphic" in2="BackgroundImageFix" result="shape"/>
<feGaussianBlur stdDeviation="4.82439" result="effect1_foregroundBlur_58_815"/>
</filter>
<linearGradient id="paint0_linear_58_815" x1="23.9311" y1="5.54465" x2="23.5371" y2="44.9441" gradientUnits="userSpaceOnUse">
<stop stop-color="white" stop-opacity="0.1"/>
<stop offset="0.521228" stop-color="white"/>
<stop offset="1" stop-color="white" stop-opacity="0.1"/>
</linearGradient>
<linearGradient id="paint1_linear_58_815" x1="28.0184" y1="-0.931341" x2="22.1391" y2="46.7425" gradientUnits="userSpaceOnUse">
<stop stop-color="#C6FFF0" stop-opacity="0.5"/>
<stop offset="0.549164" stop-color="#B3E1D4"/>
<stop offset="1" stop-color="#779990" stop-opacity="0.5"/>
</linearGradient>
<linearGradient id="paint2_linear_58_815" x1="3.94188" y1="28.7736" x2="7.19246" y2="28.6131" gradientUnits="userSpaceOnUse">
<stop stop-color="#FF5100"/>
<stop offset="0.520702" stop-color="#D2A900" stop-opacity="0.554294"/>
<stop offset="1" stop-color="#998C00" stop-opacity="0"/>
</linearGradient>
<linearGradient id="paint3_linear_58_815" x1="24.0782" y1="23.2011" x2="44.0541" y2="25.592" gradientUnits="userSpaceOnUse">
<stop stop-color="white"/>
<stop offset="1" stop-color="#C9C6C6" stop-opacity="0"/>
</linearGradient>
<linearGradient id="paint4_linear_58_815" x1="20.9784" y1="20.176" x2="21.3724" y2="29.8946" gradientUnits="userSpaceOnUse">
<stop stop-color="white" stop-opacity="0"/>
<stop offset="0.495218" stop-color="white"/>
<stop offset="1" stop-color="#C9C6C6" stop-opacity="0"/>
</linearGradient>
</defs>
</svg>
