<svg preserveAspectRatio="none" width="100%" height="100%" overflow="visible" style="display: block;" viewBox="0 0 100.914 98.0435" fill="none" xmlns="http://www.w3.org/2000/svg">
<g id="&#229;&#133;&#137;&#230;&#150;&#145;3">
<g id="Ellipse 1" filter="url(#filter0_f_64_1116)">
<path d="M96.8136 50.8995C96.8136 74.6721 73.2089 93.9435 49.4363 93.9435C25.6638 93.9435 6.39234 74.6721 6.39234 50.8995C6.39234 27.127 25.6638 4.1 49.4363 4.1C73.2089 4.1 96.8136 27.127 96.8136 50.8995Z" fill="url(#paint0_linear_64_1116)"/>
<path d="M96.8136 50.8995C96.8136 74.6721 73.2089 93.9435 49.4363 93.9435C25.6638 93.9435 6.39234 74.6721 6.39234 50.8995C6.39234 27.127 25.6638 4.1 49.4363 4.1C73.2089 4.1 96.8136 27.127 96.8136 50.8995Z" fill="var(--fill-1, black)" fill-opacity="0.2"/>
<path d="M96.8136 50.8995C96.8136 74.6721 73.2089 93.9435 49.4363 93.9435C25.6638 93.9435 6.39234 74.6721 6.39234 50.8995C6.39234 27.127 25.6638 4.1 49.4363 4.1C73.2089 4.1 96.8136 27.127 96.8136 50.8995Z" fill="url(#paint1_linear_64_1116)" fill-opacity="0.2"/>
</g>
<g id="Ellipse 4" filter="url(#filter1_f_64_1116)">
<path d="M96.8136 50.8995C96.8136 74.6721 73.2089 93.9435 49.4363 93.9435C25.6638 93.9435 6.39234 74.6721 6.39234 50.8995C6.39234 27.127 25.6638 4.1 49.4363 4.1C73.2089 4.1 96.8136 27.127 96.8136 50.8995Z" fill="url(#paint2_linear_64_1116)"/>
</g>
<g id="Ellipse 2" filter="url(#filter2_f_64_1116)">
<path d="M94.1315 37.4826C94.4775 37.3983 94.816 37.6371 94.8412 37.9922C95.2376 43.5864 95.9207 59.1859 93.8233 64.3479C93.7217 64.5981 93.4496 64.7206 93.1873 64.6568L50.1664 54.1846C49.9075 54.1216 49.7252 53.8897 49.7252 53.6232L49.7252 48.7534C49.7252 48.487 49.9074 48.2551 50.1663 48.192L94.1315 37.4826Z" fill="url(#paint3_linear_64_1116)" fill-opacity="0.7"/>
</g>
<g id="Ellipse 3" filter="url(#filter3_f_64_1116)">
<path d="M12.1529 70.721C11.8911 70.8519 11.573 70.7689 11.4432 70.5065C8.76117 65.0869 6.48597 39.1726 9.47343 34.8263C9.59947 34.6429 9.83179 34.5972 10.0421 34.6699L49.914 48.4539C50.1468 48.5344 50.303 48.7536 50.303 49L50.303 53.9486C50.303 54.1978 50.1432 54.4189 49.9066 54.4971L34.2596 59.6709C34.2332 59.6796 34.2074 59.6903 34.1826 59.7027L12.1529 70.721Z" fill="url(#paint4_linear_64_1116)" fill-opacity="0.7"/>
</g>
<g id="Rectangle 2" filter="url(#filter4_f_64_1116)">
<rect x="46.2586" y="48.2995" width="7.51103" height="6.35549" rx="3.17774" fill="var(--fill-0, white)"/>
</g>
</g>
<defs>
<filter id="filter0_f_64_1116" x="2.29234" y="1.98961e-07" width="98.6213" height="98.0435" filterUnits="userSpaceOnUse" color-interpolation-filters="sRGB">
<feFlood flood-opacity="0" result="BackgroundImageFix"/>
<feBlend mode="normal" in="SourceGraphic" in2="BackgroundImageFix" result="shape"/>
<feGaussianBlur stdDeviation="2.05" result="effect1_foregroundBlur_64_1116"/>
</filter>
<filter id="filter1_f_64_1116" x="4.08125" y="1.78891" width="95.0435" height="94.4657" filterUnits="userSpaceOnUse" color-interpolation-filters="sRGB">
<feFlood flood-opacity="0" result="BackgroundImageFix"/>
<feBlend mode="normal" in="SourceGraphic" in2="BackgroundImageFix" result="shape"/>
<feGaussianBlur stdDeviation="1.15554" result="effect1_foregroundBlur_64_1116"/>
</filter>
<filter id="filter2_f_64_1116" x="44.7252" y="32.4656" width="55.5465" height="37.2079" filterUnits="userSpaceOnUse" color-interpolation-filters="sRGB">
<feFlood flood-opacity="0" result="BackgroundImageFix"/>
<feBlend mode="normal" in="SourceGraphic" in2="BackgroundImageFix" result="shape"/>
<feGaussianBlur stdDeviation="2.5" result="effect1_foregroundBlur_64_1116"/>
</filter>
<filter id="filter3_f_64_1116" x="4.46027" y="31.037" width="49.4427" height="43.3451" filterUnits="userSpaceOnUse" color-interpolation-filters="sRGB">
<feFlood flood-opacity="0" result="BackgroundImageFix"/>
<feBlend mode="normal" in="SourceGraphic" in2="BackgroundImageFix" result="shape"/>
<feGaussianBlur stdDeviation="1.8" result="effect1_foregroundBlur_64_1116"/>
</filter>
<filter id="filter4_f_64_1116" x="36.6098" y="38.6507" width="26.8086" height="25.6531" filterUnits="userSpaceOnUse" color-interpolation-filters="sRGB">
<feFlood flood-opacity="0" result="BackgroundImageFix"/>
<feBlend mode="normal" in="SourceGraphic" in2="BackgroundImageFix" result="shape"/>
<feGaussianBlur stdDeviation="4.82439" result="effect1_foregroundBlur_64_1116"/>
</filter>
<linearGradient id="paint0_linear_64_1116" x1="50.0141" y1="7.27774" x2="49.1474" y2="93.9435" gradientUnits="userSpaceOnUse">
<stop stop-color="white" stop-opacity="0.1"/>
<stop offset="0.521228" stop-color="white"/>
<stop offset="1" stop-color="white" stop-opacity="0.1"/>
</linearGradient>
<linearGradient id="paint1_linear_64_1116" x1="59.0049" y1="-6.96728" x2="46.0724" y2="97.8993" gradientUnits="userSpaceOnUse">
<stop stop-color="#C6FFF0" stop-opacity="0.5"/>
<stop offset="0.549164" stop-color="#B3E1D4"/>
<stop offset="1" stop-color="#779990" stop-opacity="0.5"/>
</linearGradient>
<linearGradient id="paint2_linear_64_1116" x1="6.04452" y1="58.3737" x2="13.1947" y2="58.0206" gradientUnits="userSpaceOnUse">
<stop stop-color="#FF5100"/>
<stop offset="0.520702" stop-color="#D2A900" stop-opacity="0.554294"/>
<stop offset="1" stop-color="#998C00" stop-opacity="0"/>
</linearGradient>
<linearGradient id="paint3_linear_64_1116" x1="50.3377" y1="46.1159" x2="94.2782" y2="51.3752" gradientUnits="userSpaceOnUse">
<stop stop-color="white"/>
<stop offset="1" stop-color="#C9C6C6" stop-opacity="0"/>
</linearGradient>
<linearGradient id="paint4_linear_64_1116" x1="43.5191" y1="39.462" x2="44.3858" y2="60.8395" gradientUnits="userSpaceOnUse">
<stop stop-color="white" stop-opacity="0"/>
<stop offset="0.495218" stop-color="white"/>
<stop offset="1" stop-color="#C9C6C6" stop-opacity="0"/>
</linearGradient>
</defs>
</svg>
