<svg preserveAspectRatio="none" width="100%" height="100%" overflow="visible" style="display: block;" viewBox="0 0 100.914 98.4051" fill="none" xmlns="http://www.w3.org/2000/svg">
<g id="&#229;&#133;&#137;&#230;&#150;&#145;5">
<g id="Ellipse 1" filter="url(#filter0_f_58_822)">
<path d="M96.8136 51.2611C96.8136 75.0336 73.2089 94.3051 49.4364 94.3051C25.6638 94.3051 6.39236 75.0336 6.39236 51.2611C6.39236 27.4886 25.6638 4.46159 49.4364 4.46159C73.2089 4.46159 96.8136 27.4886 96.8136 51.2611Z" fill="url(#paint0_linear_58_822)"/>
<path d="M96.8136 51.2611C96.8136 75.0336 73.2089 94.3051 49.4364 94.3051C25.6638 94.3051 6.39236 75.0336 6.39236 51.2611C6.39236 27.4886 25.6638 4.46159 49.4364 4.46159C73.2089 4.46159 96.8136 27.4886 96.8136 51.2611Z" fill="var(--fill-1, black)" fill-opacity="0.2"/>
<path d="M96.8136 51.2611C96.8136 75.0336 73.2089 94.3051 49.4364 94.3051C25.6638 94.3051 6.39236 75.0336 6.39236 51.2611C6.39236 27.4886 25.6638 4.46159 49.4364 4.46159C73.2089 4.46159 96.8136 27.4886 96.8136 51.2611Z" fill="url(#paint1_linear_58_822)" fill-opacity="0.2"/>
</g>
<g id="Ellipse 4" filter="url(#filter1_f_58_822)">
<path d="M97.0147 49.1106C97.0147 72.8831 73.41 92.1546 49.6374 92.1546C25.8649 92.1546 6.59344 72.8831 6.59344 49.1106C6.59344 25.3381 25.8649 2.31109 49.6374 2.31109C73.41 2.31109 97.0147 25.3381 97.0147 49.1106Z" fill="url(#paint2_linear_58_822)"/>
</g>
<g id="Ellipse 2" filter="url(#filter2_f_58_822)">
<path d="M94.1315 37.8442C94.4775 37.7599 94.816 37.9987 94.8412 38.3538C95.2376 43.948 95.9207 59.5475 93.8233 64.7095C93.7217 64.9597 93.4496 65.0822 93.1873 65.0184L50.1664 54.5462C49.9075 54.4832 49.7253 54.2513 49.7253 53.9848L49.7253 49.115C49.7253 48.8486 49.9074 48.6167 50.1663 48.5536L94.1315 37.8442Z" fill="url(#paint3_linear_58_822)" fill-opacity="0.7"/>
</g>
<g id="Ellipse 3" filter="url(#filter3_f_58_822)">
<path d="M12.1529 71.0826C11.8911 71.2135 11.5731 71.1305 11.4432 70.8681C8.76118 65.4485 6.48598 39.5342 9.47345 35.1879C9.59949 35.0045 9.8318 34.9588 10.0421 35.0315L49.914 48.8155C50.1468 48.896 50.303 49.1152 50.303 49.3616L50.303 54.3102C50.303 54.5594 50.1432 54.7805 49.9066 54.8588L34.2596 60.0325C34.2332 60.0412 34.2075 60.0519 34.1826 60.0643L12.1529 71.0826Z" fill="url(#paint4_linear_58_822)" fill-opacity="0.7"/>
</g>
<g id="Rectangle 2" filter="url(#filter4_f_58_822)">
<rect x="46.2586" y="48.6611" width="7.51103" height="6.35549" rx="3.17774" fill="var(--fill-0, white)"/>
</g>
</g>
<defs>
<filter id="filter0_f_58_822" x="2.29236" y="0.36159" width="98.6213" height="98.0435" filterUnits="userSpaceOnUse" color-interpolation-filters="sRGB">
<feFlood flood-opacity="0" result="BackgroundImageFix"/>
<feBlend mode="normal" in="SourceGraphic" in2="BackgroundImageFix" result="shape"/>
<feGaussianBlur stdDeviation="2.05" result="effect1_foregroundBlur_58_822"/>
</filter>
<filter id="filter1_f_58_822" x="4.28236" y="-9.50859e-08" width="95.0435" height="94.4657" filterUnits="userSpaceOnUse" color-interpolation-filters="sRGB">
<feFlood flood-opacity="0" result="BackgroundImageFix"/>
<feBlend mode="normal" in="SourceGraphic" in2="BackgroundImageFix" result="shape"/>
<feGaussianBlur stdDeviation="1.15554" result="effect1_foregroundBlur_58_822"/>
</filter>
<filter id="filter2_f_58_822" x="44.7253" y="32.8272" width="55.5465" height="37.2079" filterUnits="userSpaceOnUse" color-interpolation-filters="sRGB">
<feFlood flood-opacity="0" result="BackgroundImageFix"/>
<feBlend mode="normal" in="SourceGraphic" in2="BackgroundImageFix" result="shape"/>
<feGaussianBlur stdDeviation="2.5" result="effect1_foregroundBlur_58_822"/>
</filter>
<filter id="filter3_f_58_822" x="4.46029" y="31.3986" width="49.4427" height="43.3451" filterUnits="userSpaceOnUse" color-interpolation-filters="sRGB">
<feFlood flood-opacity="0" result="BackgroundImageFix"/>
<feBlend mode="normal" in="SourceGraphic" in2="BackgroundImageFix" result="shape"/>
<feGaussianBlur stdDeviation="1.8" result="effect1_foregroundBlur_58_822"/>
</filter>
<filter id="filter4_f_58_822" x="36.6098" y="39.0123" width="26.8086" height="25.6531" filterUnits="userSpaceOnUse" color-interpolation-filters="sRGB">
<feFlood flood-opacity="0" result="BackgroundImageFix"/>
<feBlend mode="normal" in="SourceGraphic" in2="BackgroundImageFix" result="shape"/>
<feGaussianBlur stdDeviation="4.82439" result="effect1_foregroundBlur_58_822"/>
</filter>
<linearGradient id="paint0_linear_58_822" x1="50.0141" y1="7.63933" x2="49.1475" y2="94.3051" gradientUnits="userSpaceOnUse">
<stop stop-color="white" stop-opacity="0.1"/>
<stop offset="0.521228" stop-color="white"/>
<stop offset="1" stop-color="white" stop-opacity="0.1"/>
</linearGradient>
<linearGradient id="paint1_linear_58_822" x1="59.005" y1="-6.60569" x2="46.0724" y2="98.2609" gradientUnits="userSpaceOnUse">
<stop stop-color="#C6FFF0" stop-opacity="0.5"/>
<stop offset="0.549164" stop-color="#B3E1D4"/>
<stop offset="1" stop-color="#779990" stop-opacity="0.5"/>
</linearGradient>
<linearGradient id="paint2_linear_58_822" x1="6.24563" y1="56.5848" x2="13.3958" y2="56.2317" gradientUnits="userSpaceOnUse">
<stop stop-color="#FF5100"/>
<stop offset="0.520702" stop-color="#D2A900" stop-opacity="0.554294"/>
<stop offset="1" stop-color="#998C00" stop-opacity="0"/>
</linearGradient>
<linearGradient id="paint3_linear_58_822" x1="50.3377" y1="46.4775" x2="94.2782" y2="51.7368" gradientUnits="userSpaceOnUse">
<stop stop-color="white"/>
<stop offset="1" stop-color="#C9C6C6" stop-opacity="0"/>
</linearGradient>
<linearGradient id="paint4_linear_58_822" x1="43.5191" y1="39.8236" x2="44.3858" y2="61.2011" gradientUnits="userSpaceOnUse">
<stop stop-color="white" stop-opacity="0"/>
<stop offset="0.495218" stop-color="white"/>
<stop offset="1" stop-color="#C9C6C6" stop-opacity="0"/>
</linearGradient>
</defs>
</svg>
